<mxfile host="app.diagrams.net" agent="Mozilla/5.0 (Windows NT 10.0; Win64; x64) AppleWebKit/537.36 (KHTML, like Gecko) Chrome/138.0.0.0 Safari/537.36 Edg/138.0.0.0" version="28.0.6">
  <diagram name="Page-1" id="ACaN3R1pOOBiM1GDDoXo">
    <mxGraphModel dx="1144" dy="660" grid="1" gridSize="10" guides="1" tooltips="1" connect="1" arrows="1" fold="1" page="1" pageScale="1" pageWidth="850" pageHeight="1100" math="0" shadow="0">
      <root>
        <mxCell id="0" />
        <mxCell id="1" parent="0" />
        <mxCell id="DbT_9PZFAlHcxEYZWK9D-1" value="Escenario: Consultar Membresía y Rutinas" style="whiteSpace=wrap;strokeWidth=2;verticalAlign=top;fontSize=20;fontStyle=1" parent="1" vertex="1">
          <mxGeometry x="20" y="20" width="4009" height="423" as="geometry" />
        </mxCell>
        <mxCell id="DbT_9PZFAlHcxEYZWK9D-2" value="" style="whiteSpace=wrap;strokeWidth=2;verticalAlign=top;" parent="DbT_9PZFAlHcxEYZWK9D-1" vertex="1">
          <mxGeometry x="60" y="46" width="3922" height="348" as="geometry" />
        </mxCell>
        <mxCell id="DbT_9PZFAlHcxEYZWK9D-3" value="" style="ellipse;aspect=fixed;strokeWidth=2;whiteSpace=wrap;fillColor=#000000;" parent="DbT_9PZFAlHcxEYZWK9D-2" vertex="1">
          <mxGeometry x="29.87052551408987" y="160" width="42.814419903528815" height="42.814419903528815" as="geometry" />
        </mxCell>
        <mxCell id="DbT_9PZFAlHcxEYZWK9D-4" value="Acceder al dashboard personal" style="whiteSpace=wrap;strokeWidth=2;fontSize=16;fontStyle=1" parent="DbT_9PZFAlHcxEYZWK9D-2" vertex="1">
          <mxGeometry x="172.25336379791827" y="143" width="258.8778877887789" height="78" as="geometry" />
        </mxCell>
        <mxCell id="DbT_9PZFAlHcxEYZWK9D-5" value="¿Hay alertas de vencimiento?" style="rhombus;strokeWidth=2;whiteSpace=wrap;fontSize=16;fontStyle=1" parent="DbT_9PZFAlHcxEYZWK9D-2" vertex="1">
          <mxGeometry x="530.6996699669967" y="43" width="276.80020309723284" height="278" as="geometry" />
        </mxCell>
        <mxCell id="DbT_9PZFAlHcxEYZWK9D-6" value="Revisar alertas" style="whiteSpace=wrap;strokeWidth=2;fontSize=16;fontStyle=1" parent="DbT_9PZFAlHcxEYZWK9D-2" vertex="1">
          <mxGeometry x="923.9949225691801" y="99" width="164.2878903274943" height="54" as="geometry" />
        </mxCell>
        <mxCell id="DbT_9PZFAlHcxEYZWK9D-7" value="Visualizar estado de la membresía" style="whiteSpace=wrap;strokeWidth=2;fontSize=16;fontStyle=1" parent="DbT_9PZFAlHcxEYZWK9D-2" vertex="1">
          <mxGeometry x="1187.851231276974" y="143" width="258.8778877887789" height="78" as="geometry" />
        </mxCell>
        <mxCell id="DbT_9PZFAlHcxEYZWK9D-8" value="Consultar historial de pagos" style="whiteSpace=wrap;strokeWidth=2;fontSize=16;fontStyle=1" parent="DbT_9PZFAlHcxEYZWK9D-2" vertex="1">
          <mxGeometry x="1546.2975374460523" y="155" width="257.88220360497587" height="54" as="geometry" />
        </mxCell>
        <mxCell id="DbT_9PZFAlHcxEYZWK9D-9" value="Seleccionar &#39;Mis Rutinas&#39;" style="whiteSpace=wrap;strokeWidth=2;fontSize=16;fontStyle=1" parent="DbT_9PZFAlHcxEYZWK9D-2" vertex="1">
          <mxGeometry x="1903.7481594313278" y="155" width="230.99873064229502" height="54" as="geometry" />
        </mxCell>
        <mxCell id="DbT_9PZFAlHcxEYZWK9D-10" value="Visualizar rutinas asignadas" style="whiteSpace=wrap;strokeWidth=2;fontSize=16;fontStyle=1" parent="DbT_9PZFAlHcxEYZWK9D-2" vertex="1">
          <mxGeometry x="2233.319624270119" y="155" width="254.8951510535669" height="54" as="geometry" />
        </mxCell>
        <mxCell id="DbT_9PZFAlHcxEYZWK9D-11" value="Seleccionar una rutina" style="whiteSpace=wrap;strokeWidth=2;fontSize=16;fontStyle=1" parent="DbT_9PZFAlHcxEYZWK9D-2" vertex="1">
          <mxGeometry x="2588.778877887789" y="155" width="220.04620462046205" height="54" as="geometry" />
        </mxCell>
        <mxCell id="DbT_9PZFAlHcxEYZWK9D-12" value="Ver sus detalles" style="whiteSpace=wrap;strokeWidth=2;fontSize=16;fontStyle=1" parent="DbT_9PZFAlHcxEYZWK9D-2" vertex="1">
          <mxGeometry x="2908.3935008885505" y="155" width="171.25767961411526" height="54" as="geometry" />
        </mxCell>
        <mxCell id="DbT_9PZFAlHcxEYZWK9D-13" value="¿Marcar ejercicios como completados?" style="rhombus;strokeWidth=2;whiteSpace=wrap;fontSize=16;fontStyle=1" parent="DbT_9PZFAlHcxEYZWK9D-2" vertex="1">
          <mxGeometry x="3178.2239146991624" y="43" width="276.80020309723284" height="278" as="geometry" />
        </mxCell>
        <mxCell id="DbT_9PZFAlHcxEYZWK9D-14" value="Marcar ejercicios" style="whiteSpace=wrap;strokeWidth=2;fontSize=16;fontStyle=1" parent="DbT_9PZFAlHcxEYZWK9D-2" vertex="1">
          <mxGeometry x="3571.5191673013455" y="99" width="182.21020563594823" height="54" as="geometry" />
        </mxCell>
        <mxCell id="DbT_9PZFAlHcxEYZWK9D-15" value="" style="ellipse;aspect=fixed;strokeWidth=2;whiteSpace=wrap;fontSize=60;" parent="DbT_9PZFAlHcxEYZWK9D-2" vertex="1">
          <mxGeometry x="3840.3538969281544" y="160" width="49.78420919014979" height="49.78420919014979" as="geometry" />
        </mxCell>
        <mxCell id="DbT_9PZFAlHcxEYZWK9D-16" value="" style="curved=1;startArrow=none;endArrow=block;exitX=1;exitY=0.53;entryX=0;entryY=0.5;rounded=0;" parent="DbT_9PZFAlHcxEYZWK9D-2" source="DbT_9PZFAlHcxEYZWK9D-3" target="DbT_9PZFAlHcxEYZWK9D-4" edge="1">
          <mxGeometry relative="1" as="geometry">
            <Array as="points" />
          </mxGeometry>
        </mxCell>
        <mxCell id="DbT_9PZFAlHcxEYZWK9D-17" value="" style="curved=1;startArrow=none;endArrow=block;exitX=1;exitY=0.5;entryX=0;entryY=0.5;rounded=0;" parent="DbT_9PZFAlHcxEYZWK9D-2" source="DbT_9PZFAlHcxEYZWK9D-4" target="DbT_9PZFAlHcxEYZWK9D-5" edge="1">
          <mxGeometry relative="1" as="geometry">
            <Array as="points" />
          </mxGeometry>
        </mxCell>
        <mxCell id="DbT_9PZFAlHcxEYZWK9D-18" value="SÍ" style="curved=1;startArrow=none;endArrow=block;exitX=1;exitY=0.36;entryX=0;entryY=0.5;rounded=0;fontSize=16;fontStyle=1" parent="DbT_9PZFAlHcxEYZWK9D-2" source="DbT_9PZFAlHcxEYZWK9D-5" target="DbT_9PZFAlHcxEYZWK9D-6" edge="1">
          <mxGeometry relative="1" as="geometry">
            <Array as="points">
              <mxPoint x="865.2495557248033" y="126" />
            </Array>
          </mxGeometry>
        </mxCell>
        <mxCell id="DbT_9PZFAlHcxEYZWK9D-19" value="" style="curved=1;startArrow=none;endArrow=block;exitX=1;exitY=0.5;entryX=0.02;entryY=0;rounded=0;" parent="DbT_9PZFAlHcxEYZWK9D-2" source="DbT_9PZFAlHcxEYZWK9D-6" target="DbT_9PZFAlHcxEYZWK9D-7" edge="1">
          <mxGeometry relative="1" as="geometry">
            <Array as="points">
              <mxPoint x="1138.0670220868242" y="126" />
            </Array>
          </mxGeometry>
        </mxCell>
        <mxCell id="DbT_9PZFAlHcxEYZWK9D-20" value="NO" style="curved=1;startArrow=none;endArrow=block;exitX=1;exitY=0.68;entryX=0.12;entryY=1;rounded=0;fontSize=16;fontStyle=1" parent="DbT_9PZFAlHcxEYZWK9D-2" source="DbT_9PZFAlHcxEYZWK9D-5" target="DbT_9PZFAlHcxEYZWK9D-7" edge="1">
          <mxGeometry relative="1" as="geometry">
            <Array as="points">
              <mxPoint x="865.2495557248033" y="253" />
              <mxPoint x="1138.0670220868242" y="253" />
            </Array>
          </mxGeometry>
        </mxCell>
        <mxCell id="DbT_9PZFAlHcxEYZWK9D-21" value="" style="curved=1;startArrow=none;endArrow=block;exitX=1;exitY=0.5;entryX=0;entryY=0.5;rounded=0;" parent="DbT_9PZFAlHcxEYZWK9D-2" source="DbT_9PZFAlHcxEYZWK9D-7" target="DbT_9PZFAlHcxEYZWK9D-8" edge="1">
          <mxGeometry relative="1" as="geometry">
            <Array as="points" />
          </mxGeometry>
        </mxCell>
        <mxCell id="DbT_9PZFAlHcxEYZWK9D-22" value="" style="curved=1;startArrow=none;endArrow=block;exitX=1;exitY=0.5;entryX=0;entryY=0.5;rounded=0;" parent="DbT_9PZFAlHcxEYZWK9D-2" source="DbT_9PZFAlHcxEYZWK9D-8" target="DbT_9PZFAlHcxEYZWK9D-9" edge="1">
          <mxGeometry relative="1" as="geometry">
            <Array as="points" />
          </mxGeometry>
        </mxCell>
        <mxCell id="DbT_9PZFAlHcxEYZWK9D-23" value="" style="curved=1;startArrow=none;endArrow=block;exitX=1;exitY=0.5;entryX=0;entryY=0.5;rounded=0;" parent="DbT_9PZFAlHcxEYZWK9D-2" source="DbT_9PZFAlHcxEYZWK9D-9" target="DbT_9PZFAlHcxEYZWK9D-10" edge="1">
          <mxGeometry relative="1" as="geometry">
            <Array as="points" />
          </mxGeometry>
        </mxCell>
        <mxCell id="DbT_9PZFAlHcxEYZWK9D-24" value="" style="curved=1;startArrow=none;endArrow=block;exitX=1;exitY=0.5;entryX=0;entryY=0.5;rounded=0;" parent="DbT_9PZFAlHcxEYZWK9D-2" source="DbT_9PZFAlHcxEYZWK9D-10" target="DbT_9PZFAlHcxEYZWK9D-11" edge="1">
          <mxGeometry relative="1" as="geometry">
            <Array as="points" />
          </mxGeometry>
        </mxCell>
        <mxCell id="DbT_9PZFAlHcxEYZWK9D-25" value="" style="curved=1;startArrow=none;endArrow=block;exitX=1;exitY=0.5;entryX=0;entryY=0.5;rounded=0;" parent="DbT_9PZFAlHcxEYZWK9D-2" source="DbT_9PZFAlHcxEYZWK9D-11" target="DbT_9PZFAlHcxEYZWK9D-12" edge="1">
          <mxGeometry relative="1" as="geometry">
            <Array as="points" />
          </mxGeometry>
        </mxCell>
        <mxCell id="DbT_9PZFAlHcxEYZWK9D-26" value="" style="curved=1;startArrow=none;endArrow=block;exitX=1;exitY=0.5;entryX=0;entryY=0.5;rounded=0;" parent="DbT_9PZFAlHcxEYZWK9D-2" source="DbT_9PZFAlHcxEYZWK9D-12" target="DbT_9PZFAlHcxEYZWK9D-13" edge="1">
          <mxGeometry relative="1" as="geometry">
            <Array as="points" />
          </mxGeometry>
        </mxCell>
        <mxCell id="DbT_9PZFAlHcxEYZWK9D-27" value="SÍ" style="curved=1;startArrow=none;endArrow=block;exitX=1;exitY=0.36;entryX=0;entryY=0.5;rounded=0;fontSize=16;fontStyle=1" parent="DbT_9PZFAlHcxEYZWK9D-2" source="DbT_9PZFAlHcxEYZWK9D-13" target="DbT_9PZFAlHcxEYZWK9D-14" edge="1">
          <mxGeometry relative="1" as="geometry">
            <Array as="points">
              <mxPoint x="3513.769484640772" y="126" />
            </Array>
          </mxGeometry>
        </mxCell>
        <mxCell id="DbT_9PZFAlHcxEYZWK9D-28" value="" style="curved=1;startArrow=none;endArrow=block;exitX=1;exitY=0.5;entryX=0;entryY=0.08;rounded=0;" parent="DbT_9PZFAlHcxEYZWK9D-2" source="DbT_9PZFAlHcxEYZWK9D-14" target="DbT_9PZFAlHcxEYZWK9D-15" edge="1">
          <mxGeometry relative="1" as="geometry">
            <Array as="points">
              <mxPoint x="3803.513582127444" y="126" />
            </Array>
          </mxGeometry>
        </mxCell>
        <mxCell id="DbT_9PZFAlHcxEYZWK9D-29" value="NO" style="curved=1;startArrow=none;endArrow=block;exitX=1;exitY=0.68;entryX=0.06;entryY=1.02;rounded=0;fontSize=16;fontStyle=1" parent="DbT_9PZFAlHcxEYZWK9D-2" source="DbT_9PZFAlHcxEYZWK9D-13" target="DbT_9PZFAlHcxEYZWK9D-15" edge="1">
          <mxGeometry relative="1" as="geometry">
            <Array as="points">
              <mxPoint x="3513.769484640772" y="253" />
              <mxPoint x="3803.513582127444" y="253" />
            </Array>
          </mxGeometry>
        </mxCell>
        <mxCell id="DbT_9PZFAlHcxEYZWK9D-30" value="" style="ellipse;whiteSpace=wrap;html=1;aspect=fixed;fillColor=#000000;" parent="DbT_9PZFAlHcxEYZWK9D-2" vertex="1">
          <mxGeometry x="3847.3236862147755" y="167" width="35.84463061690785" height="35.84463061690785" as="geometry" />
        </mxCell>
        <mxCell id="E6mxQhgi4wCOLixTHrdv-1" value="&lt;font style=&quot;font-size: 27px;&quot;&gt;&lt;b style=&quot;&quot;&gt;Usuario&lt;/b&gt;&lt;/font&gt;" style="text;html=1;align=center;verticalAlign=middle;whiteSpace=wrap;rounded=0;rotation=-90;" vertex="1" parent="DbT_9PZFAlHcxEYZWK9D-2">
          <mxGeometry x="-132.32" y="167" width="205" height="60" as="geometry" />
        </mxCell>
      </root>
    </mxGraphModel>
  </diagram>
</mxfile>
